# xmcd
#
# Track frame offsets:
#	150
#	19600
#	34284
#	47925
#	63890
#	77475
#	92650
#	109556
#	123444
#
# Disc length: 1870 seconds
# Revision: 0
# Processed by: cddbd v1.5.2PL0 Copyright (c) Steve Scherf et al.
# Submitted via: dBpowerAMP V12.0
#
DISCID=68074c09
DTITLE=Jo Rose - Spurs
DYEAR=2014
DGENRE=FOLK  AMERICANA
TTITLE0=Balcony Doors
TTITLE1=Another Name For Mercy
TTITLE2=River Reflection
TTITLE3=Maiden Name
TTITLE4=Without You
TTITLE5=King of Your Blue Eyes
TTITLE6=I'm Yr Camera
TTITLE7=Terrible Liar
TTITLE8=Mary's Dress
EXTD=
EXTT0=
EXTT1=
EXTT2=
EXTT3=
EXTT4=
EXTT5=
EXTT6=
EXTT7=
EXTT8=
PLAYORDER=
